<!-- PrimeAtlas 导航图标集 -->
<svg xmlns="http://www.w3.org/2000/svg" style="display:none">
  <defs>
    <!-- 首页 -->
    <symbol id="icon-home" viewBox="0 0 24 24">
      <path d="M3 12l2-2m0 0l7-7 7 7M5 10v10a1 1 0 001 1h3m10-11l2 2m-2-2v10a1 1 0 01-1 1h-3m-4 0a1 1 0 01-1-1v-4a1 1 0 011-1h2a1 1 0 011 1v4a1 1 0 01-1 1m-2 0h2" stroke="currentColor" stroke-width="2" fill="none" stroke-linecap="round" stroke-linejoin="round"/>
    </symbol>

    <!-- 模块 -->
    <symbol id="icon-module" viewBox="0 0 24 24">
      <rect x="3" y="3" width="7" height="7" rx="1.5" stroke="currentColor" stroke-width="2" fill="none"/>
      <rect x="14" y="3" width="7" height="7" rx="1.5" stroke="currentColor" stroke-width="2" fill="none"/>
      <rect x="3" y="14" width="7" height="7" rx="1.5" stroke="currentColor" stroke-width="2" fill="none"/>
      <rect x="14" y="14" width="7" height="7" rx="1.5" stroke="currentColor" stroke-width="2" fill="none"/>
    </symbol>

    <!-- 我的/个人 -->
    <symbol id="icon-profile" viewBox="0 0 24 24">
      <circle cx="12" cy="8" r="4" stroke="currentColor" stroke-width="2" fill="none"/>
      <path d="M6 21v-2a4 4 0 014-4h4a4 4 0 014 4v2" stroke="currentColor" stroke-width="2" fill="none" stroke-linecap="round"/>
    </symbol>
  </defs>
</svg>
